<svg width="41" height="48" viewBox="0 0 41 48" fill="none" xmlns="http://www.w3.org/2000/svg">
<path fill-rule="evenodd" clip-rule="evenodd" d="M6 0.713135L13.0078 7.34726L0 7.3396V39.5269H34V27.2202L41 33.8469V0.713135H6ZM33.6924 26.4415L13.8226 7.63109H33.6924V26.4415ZM27.5231 34.8187H5.38008V13.1711H6.9453V33.3528H27.5231V34.8187ZM10.6089 43.8123L9.79102 45.4968L8.97314 43.8123H8.28711L9.48096 46.0583V47.3669H10.1011V46.0583L11.2925 43.8123H10.6089ZM11.6367 47.3669L11.9248 46.5393H13.3018L13.5923 47.3669H14.2368L12.8916 43.8123H12.3374L10.9946 47.3669H11.6367ZM12.6133 44.5667L13.1284 46.0413H12.0981L12.6133 44.5667ZM15.8701 45.9558C15.7806 46.0925 15.7358 46.2431 15.7358 46.4075C15.7358 46.707 15.8408 46.9503 16.0508 47.1375C16.2624 47.323 16.5439 47.4158 16.8955 47.4158C17.2471 47.4158 17.5498 47.3206 17.8037 47.1301L18.0039 47.3669H18.6924L18.1699 46.7493C18.375 46.4693 18.4775 46.1104 18.4775 45.6726H17.9624C17.9624 45.9119 17.9128 46.1292 17.8135 46.3245L17.1274 45.5139L17.3691 45.3381C17.54 45.2144 17.6629 45.0907 17.7378 44.967C17.8127 44.8417 17.8501 44.705 17.8501 44.5569C17.8501 44.3323 17.7671 44.1443 17.6011 43.9929C17.4367 43.8399 17.2251 43.7634 16.9663 43.7634C16.6798 43.7634 16.452 43.8448 16.2827 44.0076C16.1134 44.1687 16.0288 44.3884 16.0288 44.6667C16.0288 44.7807 16.0557 44.8987 16.1094 45.0208C16.1647 45.1428 16.2616 45.2909 16.3999 45.4651C16.1362 45.6539 15.9596 45.8175 15.8701 45.9558ZM17.4741 46.7419C17.3 46.8754 17.1128 46.9421 16.9126 46.9421C16.7352 46.9421 16.5936 46.8909 16.4878 46.7883C16.382 46.6858 16.3291 46.5523 16.3291 46.3879C16.3291 46.1975 16.4268 46.0282 16.6221 45.8801L16.6978 45.8264L17.4741 46.7419ZM16.8369 45.1672C16.6693 44.9605 16.5854 44.7888 16.5854 44.6521C16.5854 44.5333 16.6196 44.4348 16.688 44.3567C16.7563 44.2786 16.8483 44.2395 16.9639 44.2395C17.0713 44.2395 17.16 44.2729 17.23 44.3396C17.3 44.4047 17.335 44.4836 17.335 44.5764C17.335 44.7164 17.2845 44.8311 17.1836 44.9207L17.1079 44.9817L16.8369 45.1672ZM22.623 47.0984C22.8672 46.8852 23.0072 46.5889 23.043 46.2097H22.4277C22.3952 46.4636 22.3179 46.6451 22.1958 46.7542C22.0737 46.8632 21.8914 46.9177 21.6489 46.9177C21.3836 46.9177 21.1818 46.8168 21.0435 46.615C20.9067 46.4132 20.8384 46.1202 20.8384 45.7361V45.4211C20.8416 45.0419 20.9149 44.7546 21.0581 44.5593C21.203 44.3624 21.4097 44.2639 21.6782 44.2639C21.9093 44.2639 22.0843 44.3209 22.2031 44.4348C22.3236 44.5471 22.3984 44.731 22.4277 44.9866H23.043C23.0039 44.5976 22.8647 44.2965 22.6255 44.0833C22.3862 43.87 22.0705 43.7634 21.6782 43.7634C21.3869 43.7634 21.1297 43.8326 20.9067 43.9709C20.6854 44.1093 20.5153 44.3062 20.3965 44.5618C20.2777 44.8173 20.2183 45.1127 20.2183 45.448V45.78C20.2231 46.1072 20.2842 46.3945 20.4014 46.6418C20.5186 46.8892 20.6846 47.0805 20.8994 47.2156C21.1159 47.349 21.3657 47.4158 21.6489 47.4158C22.0542 47.4158 22.3789 47.31 22.623 47.0984ZM26.2534 46.6003C26.3739 46.3367 26.4341 46.0307 26.4341 45.6824V45.4846C26.4325 45.1379 26.3706 44.8344 26.2485 44.574C26.1265 44.3119 25.9531 44.1117 25.7285 43.9734C25.5055 43.8334 25.2492 43.7634 24.9595 43.7634C24.6698 43.7634 24.4126 43.8342 24.188 43.9758C23.965 44.1158 23.7917 44.3184 23.668 44.5837C23.5459 44.849 23.4849 45.155 23.4849 45.5017V45.7019C23.4865 46.0421 23.5483 46.3424 23.6704 46.6028C23.7941 46.8632 23.9683 47.0642 24.1929 47.2058C24.4191 47.3458 24.6763 47.4158 24.9644 47.4158C25.2557 47.4158 25.5129 47.3458 25.7358 47.2058C25.9604 47.0642 26.133 46.8624 26.2534 46.6003ZM25.5918 44.5911C25.7415 44.801 25.8164 45.1029 25.8164 45.4968V45.6824C25.8164 46.0828 25.7423 46.3871 25.5942 46.5955C25.4478 46.8038 25.2378 46.908 24.9644 46.908C24.6942 46.908 24.4826 46.8013 24.3296 46.5881C24.1782 46.3749 24.1025 46.073 24.1025 45.6824V45.4773C24.1058 45.0948 24.1823 44.7994 24.332 44.5911C24.4834 44.3811 24.6925 44.2761 24.9595 44.2761C25.2329 44.2761 25.4437 44.3811 25.5918 44.5911Z" fill="#AFB1B8"/>
</svg>
